<svg width="252" height="109" viewBox="0 0 252 109" fill="none" xmlns="http://www.w3.org/2000/svg">
<ellipse cx="126" cy="54.5" rx="126" ry="54.5" fill="#FF472E"/>
<path d="M66.472 79.864C62.584 79.864 59.08 79.12 55.96 77.632C52.888 76.144 50.464 73.984 48.688 71.152C46.912 68.272 46.024 64.768 46.024 60.64C46.024 56.992 46.672 53.872 47.968 51.28C49.312 48.64 51.16 46.504 53.512 44.872H46.024V39.328H71.656C74.248 39.328 76.072 39.208 77.128 38.968C78.184 38.728 78.976 38.416 79.504 38.032C80.128 37.552 80.536 37.024 80.728 36.448C80.968 35.824 81.088 35.176 81.088 34.504C81.088 31.432 79.528 28.336 76.408 25.216L81.088 22.12C83.344 24.616 84.88 26.872 85.696 28.888C86.512 30.856 86.92 32.872 86.92 34.936C86.92 35.848 86.728 36.976 86.344 38.32C85.96 39.616 85.168 40.792 83.968 41.848C83.344 42.424 82.6 42.928 81.736 43.36C80.92 43.792 80.032 44.128 79.072 44.368C81.568 46.096 83.488 48.256 84.832 50.848C86.224 53.44 86.92 56.704 86.92 60.64C86.92 64.384 86.104 67.696 84.472 70.576C82.84 73.456 80.488 75.736 77.416 77.416C74.392 79.048 70.744 79.864 66.472 79.864ZM66.544 74.032C69.808 74.032 72.496 73.384 74.608 72.088C76.768 70.792 78.376 69.04 79.432 66.832C80.488 64.576 81.016 62.104 81.016 59.416C81.016 56.296 80.368 53.656 79.072 51.496C77.824 49.288 76.12 47.608 73.96 46.456C71.8 45.304 69.352 44.728 66.616 44.728C62.152 44.728 58.576 46.072 55.888 48.76C53.248 51.448 51.928 55 51.928 59.416C51.928 64.072 53.248 67.672 55.888 70.216C58.576 72.76 62.128 74.032 66.544 74.032ZM66.472 63.376C65.32 63.376 64.336 62.968 63.52 62.152C62.704 61.336 62.296 60.328 62.296 59.128C62.296 57.928 62.704 56.92 63.52 56.104C64.336 55.288 65.32 54.88 66.472 54.88C67.672 54.88 68.656 55.288 69.424 56.104C70.24 56.92 70.648 57.928 70.648 59.128C70.648 60.328 70.24 61.336 69.424 62.152C68.656 62.968 67.672 63.376 66.472 63.376ZM104.946 57.184C110.634 52 115.674 45.664 119.418 38.536H132.162C135.978 45.52 141.45 52.144 147.426 57.184H104.946ZM135.114 77.488V61.792H143.826V77.488H135.114ZM116.754 77.488H108.186V61.792H116.754V77.488ZM130.29 77.488H121.65V61.792H130.29V77.488ZM156.642 38.536V33.784H137.994C141.018 30.328 144.618 25 147.498 20.392L141.954 18.664C139.938 22.84 136.122 28.744 133.17 32.416L136.986 33.784H114.954L118.266 32.128C116.754 28.456 113.298 23.128 109.986 19.096L105.45 21.04C108.402 24.856 111.642 30.112 113.226 33.784H95.2984V38.536H113.226C108.258 47.392 100.554 55.024 92.0584 59.848C93.2824 60.784 95.3704 62.8 96.1624 63.88C98.6104 62.296 101.058 60.568 103.362 58.552V77.488H93.4264V82.312H158.442V77.488H148.794V58.264C151.098 60.064 153.474 61.648 155.85 62.944C156.642 61.648 158.37 59.632 159.522 58.696C151.314 54.736 142.962 46.888 137.778 38.536H156.642ZM185.37 79.864C181.482 79.864 177.978 79.12 174.858 77.632C171.786 76.144 169.362 73.984 167.586 71.152C165.81 68.272 164.922 64.768 164.922 60.64C164.922 56.992 165.57 53.872 166.866 51.28C168.21 48.64 170.058 46.504 172.41 44.872H164.922V39.328H190.554C193.146 39.328 194.97 39.208 196.026 38.968C197.082 38.728 197.874 38.416 198.402 38.032C199.026 37.552 199.434 37.024 199.626 36.448C199.866 35.824 199.986 35.176 199.986 34.504C199.986 31.432 198.426 28.336 195.306 25.216L199.986 22.12C202.242 24.616 203.778 26.872 204.594 28.888C205.41 30.856 205.818 32.872 205.818 34.936C205.818 35.848 205.626 36.976 205.242 38.32C204.858 39.616 204.066 40.792 202.866 41.848C202.242 42.424 201.498 42.928 200.634 43.36C199.818 43.792 198.93 44.128 197.97 44.368C200.466 46.096 202.386 48.256 203.73 50.848C205.122 53.44 205.818 56.704 205.818 60.64C205.818 64.384 205.002 67.696 203.37 70.576C201.738 73.456 199.386 75.736 196.314 77.416C193.29 79.048 189.642 79.864 185.37 79.864ZM185.442 74.032C188.706 74.032 191.394 73.384 193.506 72.088C195.666 70.792 197.274 69.04 198.33 66.832C199.386 64.576 199.914 62.104 199.914 59.416C199.914 56.296 199.266 53.656 197.97 51.496C196.722 49.288 195.018 47.608 192.858 46.456C190.698 45.304 188.25 44.728 185.514 44.728C181.05 44.728 177.474 46.072 174.786 48.76C172.146 51.448 170.826 55 170.826 59.416C170.826 64.072 172.146 67.672 174.786 70.216C177.474 72.76 181.026 74.032 185.442 74.032ZM185.37 63.376C184.218 63.376 183.234 62.968 182.418 62.152C181.602 61.336 181.194 60.328 181.194 59.128C181.194 57.928 181.602 56.92 182.418 56.104C183.234 55.288 184.218 54.88 185.37 54.88C186.57 54.88 187.554 55.288 188.322 56.104C189.138 56.92 189.546 57.928 189.546 59.128C189.546 60.328 189.138 61.336 188.322 62.152C187.554 62.968 186.57 63.376 185.37 63.376Z" fill="black"/>
</svg>
