<svg width="199" height="122" viewBox="0 0 199 122" fill="none" xmlns="http://www.w3.org/2000/svg">
<ellipse cx="99.5" cy="61" rx="99.5" ry="61" fill="#5E94FF"/>
<path d="M19.1562 63.5312C19.1562 58.8229 19.7812 54.3021 21.0312 49.9688C22.3021 45.6354 24.1875 41.6979 26.6875 38.1562C29.1875 34.6146 31.7812 32.1146 34.4688 30.6562L35.6562 34.4688C32.6146 36.8021 30.1146 40.3646 28.1562 45.1562C26.2188 49.9479 25.1562 55.3125 24.9688 61.25L24.9375 63.9062C24.9375 71.9479 26.4062 78.9271 29.3438 84.8438C31.1146 88.3854 33.2188 91.1562 35.6562 93.1562L34.4688 96.6875C31.6979 95.1458 29.0521 92.5625 26.5312 88.9375C21.6146 81.8542 19.1562 73.3854 19.1562 63.5312ZM50.699 82.768C47.371 82.768 44.683 81.5307 42.635 79.056C40.587 76.5813 39.563 72.8693 39.563 67.92C39.563 64.336 40.267 61.136 41.675 58.32C43.083 55.4613 45.131 53.2427 47.819 51.664H39.563V46.736H69.643C71.9043 46.736 73.5043 46.6293 74.443 46.416C75.4243 46.2027 76.1283 45.9253 76.555 45.584C77.1523 45.1573 77.5363 44.688 77.707 44.176C77.8777 43.6213 77.963 43.0453 77.963 42.448C77.963 39.7173 76.5763 36.9653 73.803 34.192L77.963 31.44C79.9683 33.6587 81.3337 35.664 82.059 37.456C82.7843 39.2053 83.147 40.9973 83.147 42.832C83.147 43.6427 82.9763 44.6453 82.635 45.84C82.2937 46.992 81.5897 48.0373 80.523 48.976C79.883 49.5307 79.0937 50.0213 78.155 50.448C77.259 50.8747 76.1283 51.1947 74.763 51.408C77.3657 52.944 79.4137 55.1627 80.907 58.064C82.4003 60.9227 83.147 64.208 83.147 67.92C83.147 72.8693 82.1017 76.5813 80.011 79.056C77.963 81.5307 75.211 82.768 71.755 82.768C69.323 82.768 67.2963 82.32 65.675 81.424C64.0963 80.528 62.6457 79.056 61.323 77.008C59.915 79.3973 58.2937 80.9547 56.459 81.68C54.667 82.4053 52.747 82.768 50.699 82.768ZM51.403 77.712C53.5363 77.712 55.2217 77.008 56.459 75.6C57.6963 74.1493 58.507 72.3573 58.891 70.224H63.755C64.1817 72.8267 65.099 74.7253 66.507 75.92C67.915 77.1147 69.4937 77.712 71.243 77.712C73.291 77.712 74.9123 76.9867 76.107 75.536C77.3017 74.0853 77.899 71.6107 77.899 68.112C77.899 65.1253 77.3017 62.3947 76.107 59.92C74.955 57.4027 73.2057 55.376 70.859 53.84C68.5123 52.304 65.5683 51.536 62.027 51.536H60.939C57.4403 51.536 54.475 52.2613 52.043 53.712C49.6537 55.12 47.8403 57.0613 46.603 59.536C45.4083 62.0107 44.811 64.8267 44.811 67.984C44.811 71.4827 45.387 73.9787 46.539 75.472C47.691 76.9653 49.3123 77.712 51.403 77.712ZM61.323 66.192C60.299 66.192 59.4243 65.8293 58.699 65.104C57.9737 64.3787 57.611 63.4827 57.611 62.416C57.611 61.3493 57.9737 60.4533 58.699 59.728C59.4243 59.0027 60.299 58.64 61.323 58.64C62.3897 58.64 63.2643 59.0027 63.947 59.728C64.6723 60.4533 65.035 61.3493 65.035 62.416C65.035 63.4827 64.6723 64.3787 63.947 65.104C63.2643 65.8293 62.3897 66.192 61.323 66.192ZM58.379 91.216L58.891 81.04H63.819L64.331 91.216H58.379ZM98.0365 82.64C95.8178 82.64 93.7272 82.32 91.7645 81.68C89.8018 80.9973 88.0738 80.1227 86.5805 79.056L88.6925 74.832C89.9725 75.7707 91.4445 76.5387 93.1085 77.136C94.7725 77.6907 96.3298 77.968 97.7805 77.968C103.029 77.968 105.653 75.3867 105.653 70.224C105.653 67.1947 104.607 64.528 102.517 62.224C100.469 59.8773 97.5458 58.1067 93.7485 56.912V33.36H99.3805V53.968C102.367 55.3333 104.735 56.9333 106.485 58.768C108.234 60.6027 109.493 62.5227 110.261 64.528C111.029 66.5333 111.413 68.496 111.413 70.416C111.413 74.2133 110.282 77.2 108.021 79.376C105.759 81.552 102.431 82.64 98.0365 82.64ZM99.5655 85.328C102.723 85.328 105.091 86.096 106.67 87.632C108.291 89.168 109.187 91.2587 109.358 93.904H105.902C105.731 92.1547 105.091 91.0453 103.982 90.576C102.915 90.1067 101.4 89.872 99.4375 89.872C97.7735 89.872 96.3442 90.128 95.1495 90.64C93.9122 91.152 93.1868 92.24 92.9735 93.904H89.4535C89.6668 91.344 90.6482 89.2747 92.3975 87.696C94.1042 86.1173 96.4935 85.328 99.5655 85.328ZM126.887 82.768C123.559 82.768 120.871 81.5307 118.823 79.056C116.775 76.5813 115.751 72.8693 115.751 67.92C115.751 64.336 116.455 61.136 117.863 58.32C119.271 55.4613 121.319 53.2427 124.007 51.664H115.751V46.736H145.831C148.092 46.736 149.692 46.6293 150.631 46.416C151.612 46.2027 152.316 45.9253 152.743 45.584C153.34 45.1573 153.724 44.688 153.895 44.176C154.065 43.6213 154.151 43.0453 154.151 42.448C154.151 39.7173 152.764 36.9653 149.991 34.192L154.151 31.44C156.156 33.6587 157.521 35.664 158.247 37.456C158.972 39.2053 159.335 40.9973 159.335 42.832C159.335 43.6427 159.164 44.6453 158.823 45.84C158.481 46.992 157.777 48.0373 156.711 48.976C156.071 49.5307 155.281 50.0213 154.343 50.448C153.447 50.8747 152.316 51.1947 150.951 51.408C153.553 52.944 155.601 55.1627 157.095 58.064C158.588 60.9227 159.335 64.208 159.335 67.92C159.335 72.8693 158.289 76.5813 156.199 79.056C154.151 81.5307 151.399 82.768 147.943 82.768C145.511 82.768 143.484 82.32 141.863 81.424C140.284 80.528 138.833 79.056 137.511 77.008C136.103 79.3973 134.481 80.9547 132.647 81.68C130.855 82.4053 128.935 82.768 126.887 82.768ZM127.591 77.712C129.724 77.712 131.409 77.008 132.647 75.6C133.884 74.1493 134.695 72.3573 135.079 70.224H139.943C140.369 72.8267 141.287 74.7253 142.695 75.92C144.103 77.1147 145.681 77.712 147.431 77.712C149.479 77.712 151.1 76.9867 152.295 75.536C153.489 74.0853 154.087 71.6107 154.087 68.112C154.087 65.1253 153.489 62.3947 152.295 59.92C151.143 57.4027 149.393 55.376 147.047 53.84C144.7 52.304 141.756 51.536 138.215 51.536H137.127C133.628 51.536 130.663 52.2613 128.231 53.712C125.841 55.12 124.028 57.0613 122.791 59.536C121.596 62.0107 120.999 64.8267 120.999 67.984C120.999 71.4827 121.575 73.9787 122.727 75.472C123.879 76.9653 125.5 77.712 127.591 77.712ZM137.511 66.192C136.487 66.192 135.612 65.8293 134.887 65.104C134.161 64.3787 133.799 63.4827 133.799 62.416C133.799 61.3493 134.161 60.4533 134.887 59.728C135.612 59.0027 136.487 58.64 137.511 58.64C138.577 58.64 139.452 59.0027 140.135 59.728C140.86 60.4533 141.223 61.3493 141.223 62.416C141.223 63.4827 140.86 64.3787 140.135 65.104C139.452 65.8293 138.577 66.192 137.511 66.192ZM134.567 91.216L135.079 81.04H140.007L140.519 91.216H134.567ZM179.719 63.8438C179.719 68.4896 179.104 72.9479 177.875 77.2188C176.667 81.4688 174.802 85.3958 172.281 89C169.781 92.6042 167.156 95.1667 164.406 96.6875L163.188 93.1562C166.396 90.6979 168.969 86.8854 170.906 81.7188C172.865 76.5312 173.865 70.7812 173.906 64.4688V63.4688C173.906 59.0938 173.448 55.0312 172.531 51.2812C171.615 47.5104 170.333 44.1354 168.688 41.1562C167.062 38.1771 165.229 35.8542 163.188 34.1875L164.406 30.6562C167.156 32.1771 169.771 34.7188 172.25 38.2812C174.75 41.8438 176.615 45.7708 177.844 50.0625C179.094 54.3542 179.719 58.9479 179.719 63.8438Z" fill="black"/>
</svg>
